<?xml version="1.0" encoding="utf-8"?>
<!-- Generator: Adobe Illustrator 21.1.0, SVG Export Plug-In . SVG Version: 6.00 Build 0)  -->
<svg version="1.1" id="图层_1" xmlns="http://www.w3.org/2000/svg" xmlns:xlink="http://www.w3.org/1999/xlink" x="0px" y="0px"
	 viewBox="0 0 27 27" style="enable-background:new 0 0 27 27;" xml:space="preserve">
<style type="text/css">
	.st0{fill:#F01A15;}
</style>
<title>green@2x</title>
<desc>Created with Sketch.</desc>
<g id="三农" transform="translate(1.000000, 1.000000)">
	<g>
		<path id="Shape_59_" class="st0" d="M6.2,5.3c1.7,0.3,4.3,1.4,4.9,4.8C9.4,9.8,6.8,8.7,6.2,5.3L6.2,5.3z M4.8,3.8
			c0,7.7,7.6,7.7,7.7,7.7h0C12.5,3.8,4.8,3.8,4.8,3.8z"/>
		<path id="Shape_58_" class="st0" d="M18.6,5.2c-0.3,1.6-1.4,4.1-4.7,4.7C14.2,8.3,15.3,5.8,18.6,5.2L18.6,5.2z M20,3.9
			c-7.6,0-7.5,7.3-7.5,7.3C20,11.2,20,3.9,20,3.9L20,3.9z M5.1,11.3c2,0.3,5.3,1.3,6,4.7C9.2,15.7,5.8,14.7,5.1,11.3L5.1,11.3z
			 M3.7,10c0,7.3,8.7,7.3,8.8,7.3h0C12.5,10,3.7,10,3.7,10L3.7,10z"/>
		<path id="Shape_57_" class="st0" d="M19.7,10.9c-0.4,1.6-1.7,4.2-5.9,4.7c0.2-0.8,0.7-2,1.6-2.9C16.5,11.7,17.9,11.1,19.7,10.9
			L19.7,10.9z M21.2,9.6c-8.8,0-8.7,7.3-8.7,7.3C21.2,17,21.2,9.6,21.2,9.6L21.2,9.6z M1.4,17c2.7,0.2,8.4,1.1,9.5,4.7
			C8.3,21.6,2.5,20.7,1.4,17L1.4,17z M0,15.7c0,7.3,12.2,7.3,12.4,7.3h0C12.4,15.7,0,15.7,0,15.7z"/>
		<path id="Shape_56_" class="st0" d="M23.5,16.7c-0.6,1.8-2.7,4.7-9.4,5c0.3-0.8,0.8-1.5,1.3-2.1C17,17.9,19.8,16.9,23.5,16.7
			L23.5,16.7z M25,15.4c-12.6,0-12.5,7.7-12.5,7.7C25,23.1,25,15.4,25,15.4z"/>
		<polygon id="Shape_55_" class="st0" points="11.7,8.7 13.1,8.7 13.1,23.1 11.7,23.1 		"/>
		<path id="Shape_54_" class="st0" d="M12,1.8c0.3,0.4,0.6,0.9,0.8,1.5c0.6,1.5,0.3,3-0.7,4.4c-0.5-0.8-1.2-1.9-1.2-3.1
			C10.9,3.7,11.3,2.7,12,1.8L12,1.8z M12,0c-5.4,4.8,0,9.6,0,9.6C17.4,4.8,12,0,12,0z"/>
	</g>
</g>
</svg>
