<?xml version="1.0" encoding="utf-8"?>
<!-- Generator: Adobe Illustrator 21.1.0, SVG Export Plug-In . SVG Version: 6.00 Build 0)  -->
<svg version="1.1" id="图层_1" xmlns="http://www.w3.org/2000/svg" xmlns:xlink="http://www.w3.org/1999/xlink" x="0px" y="0px"
	 viewBox="0 0 14 14" style="enable-background:new 0 0 14 14;" xml:space="preserve">
<style type="text/css">
	.st0{fill:#FF641A;}
</style>
<title>juan@2x</title>
<desc>Created with Sketch.</desc>
<g id="优惠劵" transform="translate(1.000000, 3.000000)">
	<g>
		<path id="Shape_9_" class="st0" d="M11.3,9H0.7C0.3,9,0,8.7,0,8.3V6.2C0,6,0.1,5.9,0.3,5.9c0,0,0,0,0,0c0.6-0.2,1-0.7,1-1.3
			c0-0.6-0.4-1.2-1-1.3c0,0,0,0,0,0C0.1,3.1,0,3,0,2.8V0.7C0,0.3,0.3,0,0.7,0h10.7C11.7,0,12,0.3,12,0.7v2.1c0,0.2-0.1,0.3-0.3,0.3
			c0,0,0,0,0,0c-0.6,0.2-1,0.7-1,1.3s0.4,1.2,1,1.3c0,0,0,0,0,0C11.9,5.9,12,6,12,6.2v2.1C12,8.7,11.7,9,11.3,9z M11.3,6.5
			c-0.8-0.3-1.3-1.1-1.3-2c0-0.9,0.6-1.7,1.3-2V1c0-0.2-0.1-0.3-0.3-0.3H1C0.8,0.7,0.7,0.8,0.7,1v1.5C1.4,2.8,2,3.6,2,4.5
			c0,0.9-0.6,1.7-1.3,2V8c0,0.2,0.1,0.3,0.3,0.3h10c0.2,0,0.3-0.2,0.3-0.3V6.5L11.3,6.5z M7.5,5.9H6.3v0.9c0,0.1-0.1,0.2-0.2,0.2
			H5.8c-0.1,0-0.2-0.1-0.2-0.2V5.9H4.5c-0.1,0-0.2-0.1-0.2-0.2V5.4c0-0.1,0.1-0.2,0.2-0.2h1.2V4.5H4.5c-0.1,0-0.2-0.1-0.2-0.2V4
			c0-0.1,0.1-0.2,0.2-0.2h0.9l-1-1.2c-0.1-0.1-0.1-0.2,0-0.2l0.2-0.2c0.1-0.1,0.2-0.1,0.2,0L6,3.5l1.2-1.4c0.1-0.1,0.2-0.1,0.2,0
			l0.2,0.2c0.1,0.1,0.1,0.2,0,0.2l-1,1.2h0.9c0.1,0,0.2,0.1,0.2,0.2v0.3c0,0.1-0.1,0.2-0.2,0.2H6.3v0.7h1.2c0.1,0,0.2,0.1,0.2,0.2
			v0.3C7.7,5.8,7.6,5.9,7.5,5.9L7.5,5.9z"/>
	</g>
</g>
</svg>
