<?xml version="1.0" encoding="utf-8"?>
<!-- Generator: Adobe Illustrator 21.1.0, SVG Export Plug-In . SVG Version: 6.00 Build 0)  -->
<svg version="1.1" id="图层_1" xmlns="http://www.w3.org/2000/svg" xmlns:xlink="http://www.w3.org/1999/xlink" x="0px" y="0px"
	 viewBox="0 0 27 27" style="enable-background:new 0 0 27 27;" xml:space="preserve">
<style type="text/css">
	.st0{fill:#F01A15;}
</style>
<title>like@2x</title>
<desc>Created with Sketch.</desc>
<g id="Shape">
	<path class="st0" d="M15.7,17.3l-0.7,0.5c-0.8,0.6-1.2,0.9-1.5,1.2c-0.1,0.1-0.1,0.1-0.2,0.1c-0.1,0-0.2,0-0.2-0.1
		c-0.3-0.3-0.5-0.4-1-0.8c-0.3-0.2-0.7-0.5-1.2-0.9c-1.4-1.1-3.2-2.5-3.2-4.6c0-2,1.6-3.1,3-3.1c1,0,1.9,0.5,2.6,1.3
		C14,10,15,9.6,16,9.6c1.5,0,3,1.1,3,3.1C19,14.9,16.9,16.5,15.7,17.3L15.7,17.3z M13.5,2C7.1,2,2,7.2,2,13.5V25h11.5
		C19.8,25,25,19.9,25,13.5C25,7.2,19.8,2,13.5,2z"/>
</g>
</svg>
