<?xml version="1.0" encoding="utf-8"?>
<!-- Generator: Adobe Illustrator 21.1.0, SVG Export Plug-In . SVG Version: 6.00 Build 0)  -->
<svg version="1.1" id="图层_1" xmlns="http://www.w3.org/2000/svg" xmlns:xlink="http://www.w3.org/1999/xlink" x="0px" y="0px"
	 viewBox="0 0 14 14" style="enable-background:new 0 0 14 14;" xml:space="preserve">
<style type="text/css">
	.st0{fill:#FF641A;}
</style>
<title>new@2x</title>
<desc>Created with Sketch.</desc>
<g id="新增用户" transform="translate(2.000000, 2.000000)">
	<g>
		<path id="Shape_9_" class="st0" d="M10.7,8.7H9.3V7.2C9.3,7.1,9.2,7,9.1,7C8.9,7,8.8,7.1,8.8,7.2v1.5H7.4C7.3,8.7,7.1,8.8,7.1,9
			c0,0.2,0.1,0.3,0.3,0.3h1.4v1.5c0,0.2,0.1,0.3,0.3,0.3c0.2,0,0.3-0.1,0.3-0.3V9.3h1.4C10.9,9.3,11,9.1,11,9
			C11,8.8,10.9,8.7,10.7,8.7L10.7,8.7z M7.8,6.5C7.4,6,6.8,5.7,6.1,5.4C7,4.9,7.5,3.9,7.5,2.9C7.5,1.3,6.2,0,4.6,0
			C3.1,0,1.8,1.3,1.8,2.9c0,1,0.5,2,1.3,2.5C1.3,6.1,0,7.9,0,10c0,0,0,0.1,0,0.1h0.7c0,0,0-0.1,0-0.1c0-2.3,1.8-4.1,4-4.1
			c1,0,1.8,0.4,2.5,0.9C7.4,6.7,7.6,6.6,7.8,6.5L7.8,6.5z M4.2,5.2C3.1,5,2.4,4,2.4,2.9c0-1.3,1-2.3,2.2-2.3c1.2,0,2.2,1,2.2,2.3
			c0,1.1-0.7,2-1.8,2.3C4.8,5.2,4.5,5.2,4.2,5.2L4.2,5.2z"/>
	</g>
</g>
</svg>
