<?xml version="1.0" encoding="utf-8"?>
<!-- Generator: Adobe Illustrator 21.1.0, SVG Export Plug-In . SVG Version: 6.00 Build 0)  -->
<svg version="1.1" id="图层_1" xmlns="http://www.w3.org/2000/svg" xmlns:xlink="http://www.w3.org/1999/xlink" x="0px" y="0px"
	 viewBox="0 0 14 14" style="enable-background:new 0 0 14 14;" xml:space="preserve">
<style type="text/css">
	.st0{fill:#FF641A;}
</style>
<title>online@2x</title>
<desc>Created with Sketch.</desc>
<g id="在线支付对账" transform="translate(1.000000, 1.000000)">
	<g>
		<path id="Shape_19_" class="st0" d="M11.2,3.7c0.1-0.1,0.2-0.2,0.3-0.3c0.1-0.1,0.2-0.1,0.3-0.1C11.9,3.4,12,3.5,12,3.6
			c0,0.1,0,0.2-0.1,0.2c-0.2,0.2-0.4,0.4-0.6,0.6c-0.2,0.2-0.7,0.2-0.9,0C10.2,4.2,10,4,9.8,3.8c-0.1-0.1-0.1-0.3,0-0.4
			c0.1-0.1,0.3-0.1,0.4-0.1c0,0,0,0,0.1,0c0.1,0.1,0.2,0.2,0.3,0.3V3.6c0-0.8,0-1.6,0-2.4c0-0.3-0.3-0.6-0.6-0.6c-2.9,0-5.8,0-8.7,0
			c-0.3,0-0.6,0.3-0.6,0.6c0,3.2,0,6.4,0,9.6c0,0.3,0.3,0.6,0.6,0.6H10c0.3,0,0.5-0.2,0.6-0.5c0-0.1,0-0.1,0-0.2c0-0.9,0-1.9,0-2.8
			V7.8c0,0,0,0,0,0c-0.1,0.1-0.2,0.2-0.3,0.3C10.2,8.2,10,8.2,9.9,8.2C9.7,8.1,9.7,7.9,9.8,7.7C10,7.5,10.2,7.3,10.5,7
			c0.2-0.2,0.5-0.2,0.7,0c0.3,0.2,0.5,0.5,0.7,0.7C12,7.8,12,8,11.9,8.1c-0.1,0.1-0.3,0.1-0.4,0c-0.1-0.1-0.2-0.2-0.3-0.3
			c0,0,0,0,0,0v0.1c0,1,0,2,0,3c0,0.2-0.1,0.4-0.2,0.6c-0.2,0.2-0.4,0.4-0.7,0.5c-0.1,0-0.2,0-0.3,0c-2.9,0-5.8,0-8.7,0
			c-0.4,0-0.7-0.1-0.9-0.4C0.1,11.4,0,11.2,0,10.9c0-0.1,0-0.2,0-0.3c0-3.1,0-6.3,0-9.4c0-0.4,0.1-0.7,0.4-0.9C0.6,0.1,0.8,0,1.1,0
			c0.1,0,0.3,0,0.4,0c2.8,0,5.6,0,8.4,0c0.3,0,0.6,0.1,0.8,0.3c0.3,0.2,0.4,0.5,0.4,0.9C11.1,2,11.1,2.8,11.2,3.7
			C11.2,3.7,11.2,3.7,11.2,3.7L11.2,3.7z"/>
		<path id="Shape_18_" class="st0" d="M5.7,6.7V5.8H5.6c-0.4,0-0.9,0-1.3,0C4.1,5.8,4,5.7,4,5.5c0-0.2,0.2-0.3,0.3-0.3
			c0.4,0,0.7,0,1.1,0c0,0-0.1-0.1-0.1-0.1C5.2,4.9,5.1,4.8,5,4.7C4.8,4.5,4.7,4.3,4.6,4.2C4.5,4,4.4,3.9,4.3,3.8
			C4.2,3.7,4.1,3.6,4,3.4c0-0.1,0-0.3,0.1-0.3C4.2,3,4.3,3,4.4,3.1c0.1,0,0.1,0.1,0.1,0.2C4.7,3.4,4.9,3.6,5,3.7
			c0.1,0.2,0.3,0.3,0.4,0.5c0.1,0.1,0.2,0.3,0.3,0.4c0.1,0.1,0.2,0.2,0.3,0.3C6,5,6,5,6,5c0.2-0.2,0.4-0.5,0.6-0.7
			C6.8,4,7,3.8,7.2,3.5c0.1-0.1,0.2-0.3,0.3-0.4C7.6,3,7.7,3,7.8,3C7.9,3.1,8,3.2,8,3.3c0,0.1-0.1,0.2-0.1,0.3
			C7.7,3.8,7.5,4,7.4,4.2C7.3,4.4,7.1,4.6,7,4.7C6.9,4.9,6.8,5,6.6,5.2h1.1c0.1,0,0.2,0.1,0.3,0.2c0,0.2,0,0.3-0.1,0.4
			c0,0-0.1,0-0.1,0c-0.4,0-0.9,0-1.3,0H6.3v0.8h0.1c0.4,0,0.9,0,1.3,0C7.9,6.7,8,6.8,8,7c0,0.2-0.1,0.3-0.3,0.3c-0.4,0-0.9,0-1.3,0
			H6.3v0.1c0,0.4,0,0.9,0,1.3c0,0.2-0.2,0.4-0.4,0.3C5.8,8.9,5.7,8.8,5.7,8.7c0-0.4,0-0.9,0-1.3V7.3H5.6c-0.4,0-0.9,0-1.3,0
			C4.2,7.3,4.1,7.2,4,7.1C4,7,4,6.9,4.1,6.8c0.1-0.1,0.1-0.1,0.2-0.1C4.7,6.7,5.2,6.7,5.7,6.7L5.7,6.7L5.7,6.7z"/>
	</g>
</g>
</svg>
