<?xml version="1.0" encoding="utf-8"?>
<!-- Generator: Adobe Illustrator 21.1.0, SVG Export Plug-In . SVG Version: 6.00 Build 0)  -->
<svg version="1.1" id="图层_1" xmlns="http://www.w3.org/2000/svg" xmlns:xlink="http://www.w3.org/1999/xlink" x="0px" y="0px"
	 viewBox="0 0 27 27" style="enable-background:new 0 0 27 27;" xml:space="preserve">
<style type="text/css">
	.st0{fill:#F01A15;}
</style>
<title>quality@2x</title>
<desc>Created with Sketch.</desc>
<g id="Shape">
	<path class="st0" d="M25.8,9.8L22.2,5c-0.2-0.2-0.5-0.4-0.8-0.5L13.6,3c-0.2,0-0.3,0-0.5,0L5.6,4.7C5.3,4.8,5.1,5,4.9,5.2l-3.7,4.9
		c-0.4,0.5-0.3,1.1,0.1,1.6l11.6,13c0.2,0.3,0.6,0.4,0.9,0.4h0c0.4,0,0.7-0.2,0.9-0.4l11-13.3C26.1,10.9,26.1,10.2,25.8,9.8z
		 M18.2,10l-4.4,13.4L9,10.1L18.2,10z M9.4,9.1C10.3,8,11.9,6,13.4,4.3L17.8,9L9.4,9.1L9.4,9.1z M14.8,4.2l6.1,1.2l-2,3.3L14.8,4.2
		L14.8,4.2z M8.3,8.8L6.3,5.6l5.9-1.4C11.1,5.6,9.2,7.8,8.3,8.8L8.3,8.8z M8,10.2l4.5,12.5L2.2,11.2L8,10.2z M19.2,10.1l5.5,0.8
		l-9.7,11.7L19.2,10.1z M24.6,9.9l-4.9-0.7l2-3.2L24.6,9.9z M5.4,6.2l2.1,3.1l-5.1,0.9L5.4,6.2z"/>
</g>
</svg>
