<?xml version="1.0" encoding="utf-8"?>
<!-- Generator: Adobe Illustrator 21.1.0, SVG Export Plug-In . SVG Version: 6.00 Build 0)  -->
<svg version="1.1" id="图层_1" xmlns="http://www.w3.org/2000/svg" xmlns:xlink="http://www.w3.org/1999/xlink" x="0px" y="0px"
	 viewBox="0 0 27 27" style="enable-background:new 0 0 27 27;" xml:space="preserve">
<style type="text/css">
	.st0{fill:#F01A15;}
</style>
<title>speed@2x</title>
<desc>Created with Sketch.</desc>
<g id="快速" transform="translate(1.000000, 1.000000)">
	<g>
		<path id="Shape_19_" class="st0" d="M12.5,0C5.6,0,0,5.6,0,12.5C0,19.4,5.6,25,12.5,25C19.4,25,25,19.4,25,12.5
			C25,5.6,19.4,0,12.5,0z M12.5,24C6.2,24,1,18.8,1,12.5C1,6.2,6.2,1,12.5,1C18.8,1,24,6.2,24,12.5C24,18.8,18.8,24,12.5,24z"/>
		<polygon id="Shape_18_" class="st0" points="19.3,11.4 14.5,11.4 18,5.1 5.6,13.3 10.3,13.3 6.9,19.6 		"/>
	</g>
</g>
</svg>
