<?xml version="1.0" encoding="utf-8"?>
<!-- Generator: Adobe Illustrator 21.1.0, SVG Export Plug-In . SVG Version: 6.00 Build 0)  -->
<svg version="1.1" id="图层_1" xmlns="http://www.w3.org/2000/svg" xmlns:xlink="http://www.w3.org/1999/xlink" x="0px" y="0px"
	 viewBox="0 0 24 23" style="enable-background:new 0 0 24 23;" xml:space="preserve">
<style type="text/css">
	.st0{fill:#9B9B9B;}
</style>
<title>Add@2x</title>
<desc>Created with Sketch.</desc>
<g id="Add" transform="translate(0.000000, 1.000000)">
	<g>
		<path class="st0" d="M12,20.7c-5.8,0-10.5-4.5-10.5-10.1S6.2,0.5,12,0.5c5.8,0,10.5,4.5,10.5,10.1S17.8,20.7,12,20.7z M12,1.5
			c-5.2,0-9.5,4.1-9.5,9.1c0,5,4.3,9.1,9.5,9.1s9.5-4.1,9.5-9.1C21.5,5.6,17.2,1.5,12,1.5z"/>
		<path id="Plus_9_" class="st0" d="M10.8,9.4H7v2.9h3.8v3.8h2.9v-3.8h3.8V9.4h-3.8V5.6h-2.9V9.4z"/>
	</g>
</g>
</svg>
