<?xml version="1.0" standalone="no"?><!DOCTYPE svg PUBLIC "-//W3C//DTD SVG 1.1//EN" "http://www.w3.org/Graphics/SVG/1.1/DTD/svg11.dtd"><svg t="1514437284791" class="icon" style="" viewBox="0 0 1024 1024" version="1.1" xmlns="http://www.w3.org/2000/svg" p-id="7126" xmlns:xlink="http://www.w3.org/1999/xlink" width="200" height="200"><defs><style type="text/css"></style></defs><path d="M482.230999 982.164173c-13.903661 0-26.102495-6.602372-33.096792-13.678534l-0.215918-0.222057c-35.042097-36.651758-102.94051-113.605408-163.960259-217.173205C208.067826 620.584044 167.734212 491.981061 165.079756 368.850719l-0.004093-0.401136c0-86.09689 33.529651-167.041434 94.411253-227.922013C320.368518 79.646991 401.313062 46.119387 487.410975 46.119387c44.771693 0 88.316441 8.987698 129.424698 26.713408 39.84652 17.182334 75.283614 41.614793 105.325837 72.619948 59.096956 60.991096 90.197278 140.394541 87.571475 223.584218-2.379187 75.478042-19.22997 153.688311-50.083675 232.457306-3.743254 9.559727-14.525831 14.274098-24.089651 10.528797-9.559727-3.744277-14.273075-14.528901-10.528797-24.089651 29.30135-74.804706 45.296649-148.846026 47.541783-220.068138 2.304486-73.04155-25.081235-142.840242-77.112262-196.540282-54.203506-55.94108-130.033565-88.025822-208.048383-88.025822-76.166727 0-147.775648 29.66053-201.6343 83.519182-53.813626 53.812603-83.470063 125.343753-83.521229 201.436802 5.987365 273.214569 210.148208 507.939521 273.201266 573.96426 5.425569 4.863774 9.92607 2.294252 12.175297 0.611937 35.103496-35.236526 116.505457-119.452579 184.861288-245.173932l0.323365-0.571005c2.490727-4.218068 25.104771-41.594327 52.066843-55.05592 9.187243-4.584412 20.351514-0.857531 24.935925 8.327666 4.586458 9.18622 0.857531 20.35049-8.327666 24.935925-12.868075 6.424316-29.133527 28.088732-36.509519 40.442084-71.170946 130.788765-156.166759 218.457454-191.845353 254.17084l-0.730641 0.731664-0.807389 0.64673C501.750565 979.163839 491.603461 982.164173 482.230999 982.164173z" p-id="7127" fill="#ffffff"></path><path d="M488.112963 520.29185c-85.912695 0-155.807578-69.894883-155.807578-155.807578s69.894883-155.807578 155.807578-155.807578c85.912695 0 155.807578 69.894883 155.807578 155.807578S574.025659 520.29185 488.112963 520.29185zM488.112963 245.856477c-65.411779 0-118.627794 53.216016-118.627794 118.627794s53.216016 118.627794 118.627794 118.627794 118.628818-53.216016 118.628818-118.627794S553.524742 245.856477 488.112963 245.856477z" p-id="7128" fill="#ffffff"></path></svg>