<?xml version="1.0" encoding="utf-8"?>
<!-- Generator: Adobe Illustrator 21.1.0, SVG Export Plug-In . SVG Version: 6.00 Build 0)  -->
<svg version="1.1" id="图层_1" xmlns="http://www.w3.org/2000/svg" xmlns:xlink="http://www.w3.org/1999/xlink" x="0px" y="0px"
	 viewBox="0 0 20 20" style="enable-background:new 0 0 20 20;" xml:space="preserve">
<style type="text/css">
	.st0{fill:#4A4A4A;}
</style>
<title>evaluate@2x</title>
<desc>Created with Sketch.</desc>
<g id="待评价" transform="translate(1.000000, 1.000000)">
	<g>
		<path id="Shape_9_" class="st0" d="M9,15.7c-0.6,0-1.1-0.1-1.7-0.2L3.4,18v-4.1C1.3,12.5,0,10.3,0,7.9C0,3.5,4.1,0,9,0
			s9,3.5,9,7.9S13.9,15.7,9,15.7z M9,1.1c-4.3,0-7.9,3-7.9,6.8c0,2.4,1.3,4.3,3.4,5.5L4.4,16L7,14.5c0.7,0.1,1.2,0.2,1.9,0.2
			c4.3,0,7.9-3,7.9-6.8C16.9,4.1,13.4,1.1,9,1.1z M12.9,7.3H5.1c-0.4,0-0.6-0.2-0.6-0.6s0.2-0.6,0.6-0.6h7.9c0.4,0,0.6,0.2,0.6,0.6
			S13.3,7.3,12.9,7.3z M6.2,9.6h5.6c0.4,0,0.6,0.2,0.6,0.6s-0.2,0.6-0.6,0.6H6.2c-0.4,0-0.6-0.2-0.6-0.6C5.6,9.8,5.9,9.6,6.2,9.6z"
			/>
	</g>
</g>
</svg>
