<?xml version="1.0" encoding="utf-8"?>
<!-- Generator: Adobe Illustrator 21.1.0, SVG Export Plug-In . SVG Version: 6.00 Build 0)  -->
<svg version="1.1" id="图层_1" xmlns="http://www.w3.org/2000/svg" xmlns:xlink="http://www.w3.org/1999/xlink" x="0px" y="0px"
	 viewBox="0 0 10 18" style="enable-background:new 0 0 10 18;" xml:space="preserve">
<style type="text/css">
	.st0{fill:#9B9B9B;}
</style>
<title>单个辣椒@2x</title>
<desc>Created with Sketch.</desc>
<g id="单个辣椒">
	<path class="st0" d="M1,16.6C1,16.6,1,16.6,1,16.6c0-0.2,0.1-0.3,0.1-0.4c0-0.2,0.1-0.3,0.2-0.4c0.2-0.2,0.4-0.4,0.7-0.7
		c0.4-0.4,0.9-0.8,1.4-1.1c0.4-0.2,0.8-0.5,1-0.8c0.5-0.6,0.6-1.3,0.7-2c0-0.7,0.1-1.3,0.1-2c0,0,0-0.1-0.1-0.1
		C4.7,8.5,4.1,7.9,3.5,7.3C3.4,7.2,3.4,7.1,3.3,7c-0.2-0.3-0.2-0.6,0-0.8C3.4,6,3.5,5.9,3.7,5.8c0.2-0.2,0.4-0.3,0.6-0.4
		c0.1-0.1,0.3-0.2,0.4-0.3c0.2-0.2,0.2-0.4,0.2-0.6C4.7,4.2,4.6,4,4.5,3.8C4.3,3.4,4,2.9,3.8,2.4C3.5,2,3.5,1.5,3.5,1.1
		C3.6,1.1,3.7,1,3.7,1c0,0,0,0,0,0c0,0,0,0,0,0c0.3,0.3,0.6,0.7,0.8,1c0.5,0.7,1,1.4,1.4,2.1c0.1,0.2,0.3,0.4,0.6,0.5
		c0.2,0.1,0.5,0.2,0.7,0.3c0.5,0.2,0.8,0.5,0.9,1c0.1,0.4,0.1,0.8,0.2,1.3c0,0.1,0,0.3,0,0.5c0,0.3,0,0.6,0,1c0,0.1,0,0.3,0,0.4
		c0,0.5-0.1,1.1-0.1,1.6c0,0.5-0.1,0.9-0.2,1.4c-0.3,1.5-1.1,2.7-2.3,3.7c-0.7,0.5-1.4,0.8-2.3,1.1c-0.5,0.1-1,0.2-1.4,0.3
		c0,0-0.1,0-0.1,0c-0.1,0-0.3-0.1-0.4-0.1C1.5,16.8,1.3,16.7,1,16.6z M6.9,8.6C7,8.5,7.1,8.3,7.2,8.1c0.1-0.3,0.2-0.5,0.2-0.8
		c0.1-0.2,0.1-0.5,0.1-0.7c0-0.3-0.1-0.5-0.4-0.6C6.8,5.9,6.5,6,6.1,6.1C6.1,6.2,6,6.2,6,6.3C5.9,6.4,5.9,6.6,6,6.7
		c0.1,0,0.1,0.1,0.2,0.1c0.1,0,0.2,0.1,0.3,0.1C6.8,7,7,7.2,7,7.6c0,0.1-0.1,0.2-0.1,0.3C6.9,8.1,6.9,8.4,6.9,8.6
		C6.9,8.6,6.9,8.6,6.9,8.6z M4,15.5c0-0.1,0-0.2-0.1-0.2c-0.6-0.2-1.1,0-1.5,0.5c0,0,0,0.1,0,0.2c0,0,0.1,0.1,0.1,0.1
		C3,16,3.4,15.8,3.9,15.6C3.9,15.6,3.9,15.6,4,15.5z"/>
</g>
</svg>
