<?xml version="1.0" encoding="utf-8"?>
<!-- Generator: Adobe Illustrator 21.1.0, SVG Export Plug-In . SVG Version: 6.00 Build 0)  -->
<svg version="1.1" id="图层_1" xmlns="http://www.w3.org/2000/svg" xmlns:xlink="http://www.w3.org/1999/xlink" x="0px" y="0px"
	 viewBox="0 0 47 19" style="enable-background:new 0 0 47 19;" xml:space="preserve">
<style type="text/css">
	.st0{fill:#9B9B9B;}
</style>
<title>辣椒5个@2x</title>
<desc>Created with Sketch.</desc>
<g id="Shape">
	<path class="st0" d="M1,17.6C1,17.6,1,17.6,1,17.6c0-0.2,0.1-0.3,0.1-0.4c0-0.2,0.1-0.3,0.2-0.4c0.2-0.2,0.4-0.4,0.7-0.7
		c0.4-0.4,0.9-0.8,1.4-1.1c0.4-0.2,0.8-0.5,1-0.8c0.5-0.6,0.6-1.3,0.7-2c0-0.7,0.1-1.3,0.1-2c0,0,0-0.1-0.1-0.1
		C4.7,9.5,4.1,8.9,3.5,8.3C3.4,8.2,3.4,8.1,3.3,8c-0.2-0.3-0.2-0.6,0-0.8C3.4,7,3.5,6.9,3.7,6.8c0.2-0.2,0.4-0.3,0.6-0.4
		c0.1-0.1,0.3-0.2,0.4-0.3c0.2-0.2,0.2-0.4,0.2-0.6C4.7,5.2,4.6,5,4.5,4.8C4.3,4.4,4,3.9,3.8,3.4C3.5,3,3.5,2.5,3.5,2.1
		C3.6,2.1,3.7,2,3.7,2c0,0,0,0,0,0c0,0,0,0,0,0c0.3,0.3,0.6,0.7,0.8,1c0.5,0.7,1,1.4,1.4,2.1c0.1,0.2,0.3,0.4,0.6,0.5
		c0.2,0.1,0.5,0.2,0.7,0.3c0.5,0.2,0.8,0.5,0.9,1c0.1,0.4,0.1,0.8,0.2,1.3c0,0.1,0,0.3,0,0.5c0,0.3,0,0.6,0,1c0,0.1,0,0.3,0,0.4
		c0,0.5-0.1,1.1-0.1,1.6c0,0.5-0.1,0.9-0.2,1.4c-0.3,1.5-1.1,2.7-2.3,3.7c-0.7,0.5-1.4,0.8-2.3,1.1c-0.5,0.1-1,0.2-1.4,0.3
		c0,0-0.1,0-0.1,0c-0.1,0-0.3-0.1-0.4-0.1C1.5,17.8,1.3,17.7,1,17.6z M6.9,9.6C7,9.5,7.1,9.3,7.2,9.1c0.1-0.3,0.2-0.5,0.2-0.8
		c0.1-0.2,0.1-0.5,0.1-0.7c0-0.3-0.1-0.5-0.4-0.6C6.8,6.9,6.5,7,6.1,7.1C6.1,7.2,6,7.2,6,7.3C5.9,7.4,5.9,7.6,6,7.7
		c0.1,0,0.1,0.1,0.2,0.1c0.1,0,0.2,0.1,0.3,0.1C6.8,8,7,8.2,7,8.6c0,0.1-0.1,0.2-0.1,0.3C6.9,9.1,6.9,9.4,6.9,9.6
		C6.9,9.6,6.9,9.6,6.9,9.6z M4,16.5c0-0.1,0-0.2-0.1-0.2c-0.6-0.2-1.1,0-1.5,0.5c0,0,0,0.1,0,0.2c0,0,0.1,0.1,0.1,0.1
		C3,17,3.4,16.8,3.9,16.6C3.9,16.6,3.9,16.6,4,16.5z"/>
</g>
<g id="Shape_1_">
	<path class="st0" d="M10.7,17.6C10.7,17.6,10.7,17.6,10.7,17.6c0-0.2,0.1-0.3,0.1-0.4c0-0.2,0.1-0.3,0.2-0.4
		c0.2-0.2,0.4-0.4,0.7-0.7c0.4-0.4,0.9-0.8,1.4-1.1c0.4-0.2,0.8-0.5,1-0.8c0.5-0.6,0.6-1.3,0.7-2c0-0.7,0.1-1.3,0.1-2
		c0,0,0-0.1-0.1-0.1c-0.6-0.6-1.1-1.2-1.7-1.8C13.2,8.2,13.1,8.1,13,8c-0.2-0.3-0.2-0.6,0-0.8c0.1-0.1,0.2-0.2,0.3-0.3
		c0.2-0.2,0.4-0.3,0.6-0.4c0.1-0.1,0.3-0.2,0.4-0.3c0.2-0.2,0.2-0.4,0.2-0.6c-0.1-0.2-0.2-0.4-0.3-0.6c-0.3-0.5-0.5-1-0.8-1.4
		c-0.2-0.4-0.2-0.9-0.3-1.3c0.1,0,0.2-0.1,0.3-0.1c0,0,0,0,0,0c0,0,0,0,0,0c0.3,0.3,0.6,0.7,0.8,1c0.5,0.7,1,1.4,1.4,2.1
		c0.1,0.2,0.3,0.4,0.6,0.5c0.2,0.1,0.5,0.2,0.7,0.3c0.5,0.2,0.8,0.5,0.9,1c0.1,0.4,0.1,0.8,0.2,1.3c0,0.1,0,0.3,0,0.5
		c0,0.3,0,0.6,0,1c0,0.1,0,0.3,0,0.4c0,0.5-0.1,1.1-0.1,1.6c0,0.5-0.1,0.9-0.2,1.4c-0.3,1.5-1.1,2.7-2.3,3.7
		c-0.7,0.5-1.4,0.8-2.3,1.1c-0.5,0.1-1,0.2-1.4,0.3c0,0-0.1,0-0.1,0c-0.1,0-0.3-0.1-0.4-0.1C11.2,17.8,11,17.7,10.7,17.6z M16.6,9.6
		c0.1-0.2,0.2-0.4,0.3-0.6c0.1-0.3,0.2-0.5,0.2-0.8c0.1-0.2,0.1-0.5,0.1-0.7c0-0.3-0.1-0.5-0.4-0.6c-0.3-0.1-0.7-0.1-1,0.1
		c-0.1,0-0.1,0.1-0.2,0.2c-0.1,0.1-0.1,0.3,0.1,0.4c0.1,0,0.1,0.1,0.2,0.1c0.1,0,0.2,0.1,0.3,0.1c0.3,0.1,0.5,0.4,0.5,0.7
		c0,0.1-0.1,0.2-0.1,0.3C16.6,9.1,16.6,9.4,16.6,9.6C16.6,9.6,16.6,9.6,16.6,9.6z M13.7,16.5c0-0.1,0-0.2-0.1-0.2
		c-0.6-0.2-1.1,0-1.5,0.5c0,0,0,0.1,0,0.2c0,0,0.1,0.1,0.1,0.1c0.5-0.1,0.9-0.2,1.4-0.4C13.6,16.6,13.7,16.6,13.7,16.5z"/>
</g>
<g id="Shape_2_">
	<path class="st0" d="M19.4,17.6C19.4,17.6,19.4,17.6,19.4,17.6c0-0.2,0.1-0.3,0.1-0.4c0-0.2,0.1-0.3,0.2-0.4
		c0.2-0.2,0.4-0.4,0.7-0.7c0.4-0.4,0.9-0.8,1.4-1.1c0.4-0.2,0.8-0.5,1-0.8c0.5-0.6,0.6-1.3,0.7-2c0-0.7,0.1-1.3,0.1-2
		c0,0,0-0.1-0.1-0.1c-0.6-0.6-1.1-1.2-1.7-1.8c-0.1-0.1-0.2-0.2-0.2-0.3c-0.2-0.3-0.2-0.6,0-0.8C21.8,7,21.9,6.9,22,6.8
		c0.2-0.2,0.4-0.3,0.6-0.4c0.1-0.1,0.3-0.2,0.4-0.3c0.2-0.2,0.2-0.4,0.2-0.6C23.1,5.2,23,5,22.9,4.8c-0.3-0.5-0.5-1-0.8-1.4
		c-0.2-0.4-0.2-0.9-0.3-1.3C21.9,2.1,22,2,22.1,2c0,0,0,0,0,0c0,0,0,0,0,0c0.3,0.3,0.6,0.7,0.8,1c0.5,0.7,1,1.4,1.4,2.1
		c0.1,0.2,0.3,0.4,0.6,0.5c0.2,0.1,0.5,0.2,0.7,0.3c0.5,0.2,0.8,0.5,0.9,1c0.1,0.4,0.1,0.8,0.2,1.3c0,0.1,0,0.3,0,0.5
		c0,0.3,0,0.6,0,1c0,0.1,0,0.3,0,0.4c0,0.5-0.1,1.1-0.1,1.6c0,0.5-0.1,0.9-0.2,1.4c-0.3,1.5-1.1,2.7-2.3,3.7
		c-0.7,0.5-1.4,0.8-2.3,1.1c-0.5,0.1-1,0.2-1.4,0.3c0,0-0.1,0-0.1,0c-0.1,0-0.3-0.1-0.4-0.1C19.9,17.8,19.6,17.7,19.4,17.6z
		 M25.3,9.6c0.1-0.2,0.2-0.4,0.3-0.6c0.1-0.3,0.2-0.5,0.2-0.8c0.1-0.2,0.1-0.5,0.1-0.7c0-0.3-0.1-0.5-0.4-0.6
		c-0.3-0.1-0.7-0.1-1,0.1c-0.1,0-0.1,0.1-0.2,0.2c-0.1,0.1-0.1,0.3,0.1,0.4c0.1,0,0.1,0.1,0.2,0.1c0.1,0,0.2,0.1,0.3,0.1
		c0.3,0.1,0.5,0.4,0.5,0.7c0,0.1-0.1,0.2-0.1,0.3C25.2,9.1,25.2,9.4,25.3,9.6C25.2,9.6,25.3,9.6,25.3,9.6z M22.3,16.5
		c0-0.1,0-0.2-0.1-0.2c-0.6-0.2-1.1,0-1.5,0.5c0,0,0,0.1,0,0.2c0,0,0.1,0.1,0.1,0.1c0.5-0.1,0.9-0.2,1.4-0.4
		C22.3,16.6,22.3,16.6,22.3,16.5z"/>
</g>
<g id="Shape_3_">
	<path class="st0" d="M28,17.6C28,17.6,28,17.6,28,17.6c0-0.2,0.1-0.3,0.1-0.4c0-0.2,0.1-0.3,0.2-0.4c0.2-0.2,0.4-0.4,0.7-0.7
		c0.4-0.4,0.9-0.8,1.4-1.1c0.4-0.2,0.8-0.5,1-0.8c0.5-0.6,0.6-1.3,0.7-2c0-0.7,0.1-1.3,0.1-2c0,0,0-0.1-0.1-0.1
		c-0.6-0.6-1.1-1.2-1.7-1.8c-0.1-0.1-0.2-0.2-0.2-0.3c-0.2-0.3-0.2-0.6,0-0.8c0.1-0.1,0.2-0.2,0.3-0.3c0.2-0.2,0.4-0.3,0.6-0.4
		c0.1-0.1,0.3-0.2,0.4-0.3c0.2-0.2,0.2-0.4,0.2-0.6c-0.1-0.2-0.2-0.4-0.3-0.6c-0.3-0.5-0.5-1-0.8-1.4c-0.2-0.4-0.2-0.9-0.3-1.3
		c0.1,0,0.2-0.1,0.3-0.1c0,0,0,0,0,0c0,0,0,0,0,0c0.3,0.3,0.6,0.7,0.8,1c0.5,0.7,1,1.4,1.4,2.1c0.1,0.2,0.3,0.4,0.6,0.5
		c0.2,0.1,0.5,0.2,0.7,0.3c0.5,0.2,0.8,0.5,0.9,1c0.1,0.4,0.1,0.8,0.2,1.3c0,0.1,0,0.3,0,0.5c0,0.3,0,0.6,0,1c0,0.1,0,0.3,0,0.4
		c0,0.5-0.1,1.1-0.1,1.6c0,0.5-0.1,0.9-0.2,1.4c-0.3,1.5-1.1,2.7-2.3,3.7c-0.7,0.5-1.4,0.8-2.3,1.1c-0.5,0.1-1,0.2-1.4,0.3
		c0,0-0.1,0-0.1,0c-0.1,0-0.3-0.1-0.4-0.1C28.5,17.8,28.3,17.7,28,17.6z M33.9,9.6c0.1-0.2,0.2-0.4,0.3-0.6c0.1-0.3,0.2-0.5,0.2-0.8
		c0.1-0.2,0.1-0.5,0.1-0.7c0-0.3-0.1-0.5-0.4-0.6c-0.3-0.1-0.7-0.1-1,0.1c-0.1,0-0.1,0.1-0.2,0.2c-0.1,0.1-0.1,0.3,0.1,0.4
		c0.1,0,0.1,0.1,0.2,0.1c0.1,0,0.2,0.1,0.3,0.1C33.8,8,34,8.2,34,8.6c0,0.1-0.1,0.2-0.1,0.3C33.9,9.1,33.9,9.4,33.9,9.6
		C33.9,9.6,33.9,9.6,33.9,9.6z M31,16.5c0-0.1,0-0.2-0.1-0.2c-0.6-0.2-1.1,0-1.5,0.5c0,0,0,0.1,0,0.2c0,0,0.1,0.1,0.1,0.1
		c0.5-0.1,0.9-0.2,1.4-0.4C30.9,16.6,30.9,16.6,31,16.5z"/>
</g>
<g id="Shape_4_">
	<path class="st0" d="M37.7,17.6C37.7,17.6,37.7,17.6,37.7,17.6c0-0.2,0.1-0.3,0.1-0.4c0-0.2,0.1-0.3,0.2-0.4
		c0.2-0.2,0.4-0.4,0.7-0.7c0.4-0.4,0.9-0.8,1.4-1.1c0.4-0.2,0.8-0.5,1-0.8c0.5-0.6,0.6-1.3,0.7-2c0-0.7,0.1-1.3,0.1-2
		c0,0,0-0.1-0.1-0.1c-0.6-0.6-1.1-1.2-1.7-1.8C40.2,8.2,40.1,8.1,40,8c-0.2-0.3-0.2-0.6,0-0.8c0.1-0.1,0.2-0.2,0.3-0.3
		c0.2-0.2,0.4-0.3,0.6-0.4c0.1-0.1,0.3-0.2,0.4-0.3c0.2-0.2,0.2-0.4,0.2-0.6c-0.1-0.2-0.2-0.4-0.3-0.6c-0.3-0.5-0.5-1-0.8-1.4
		c-0.2-0.4-0.2-0.9-0.3-1.3c0.1,0,0.2-0.1,0.3-0.1c0,0,0,0,0,0c0,0,0,0,0,0c0.3,0.3,0.6,0.7,0.8,1c0.5,0.7,1,1.4,1.4,2.1
		c0.1,0.2,0.3,0.4,0.6,0.5c0.2,0.1,0.5,0.2,0.7,0.3c0.5,0.2,0.8,0.5,0.9,1c0.1,0.4,0.1,0.8,0.2,1.3c0,0.1,0,0.3,0,0.5
		c0,0.3,0,0.6,0,1c0,0.1,0,0.3,0,0.4c0,0.5-0.1,1.1-0.1,1.6c0,0.5-0.1,0.9-0.2,1.4c-0.3,1.5-1.1,2.7-2.3,3.7
		c-0.7,0.5-1.4,0.8-2.3,1.1c-0.5,0.1-1,0.2-1.4,0.3c0,0-0.1,0-0.1,0c-0.1,0-0.3-0.1-0.4-0.1C38.2,17.8,38,17.7,37.7,17.6z M43.6,9.6
		c0.1-0.2,0.2-0.4,0.3-0.6c0.1-0.3,0.2-0.5,0.2-0.8c0.1-0.2,0.1-0.5,0.1-0.7c0-0.3-0.1-0.5-0.4-0.6c-0.3-0.1-0.7-0.1-1,0.1
		c-0.1,0-0.1,0.1-0.2,0.2c-0.1,0.1-0.1,0.3,0.1,0.4c0.1,0,0.1,0.1,0.2,0.1c0.1,0,0.2,0.1,0.3,0.1c0.3,0.1,0.5,0.4,0.5,0.7
		c0,0.1-0.1,0.2-0.1,0.3C43.6,9.1,43.6,9.4,43.6,9.6C43.6,9.6,43.6,9.6,43.6,9.6z M40.7,16.5c0-0.1,0-0.2-0.1-0.2
		c-0.6-0.2-1.1,0-1.5,0.5c0,0,0,0.1,0,0.2c0,0,0.1,0.1,0.1,0.1c0.5-0.1,0.9-0.2,1.4-0.4C40.6,16.6,40.7,16.6,40.7,16.5z"/>
</g>
</svg>
