<?xml version="1.0" encoding="utf-8"?>
<!-- Generator: Adobe Illustrator 21.1.0, SVG Export Plug-In . SVG Version: 6.00 Build 0)  -->
<svg version="1.1" id="图层_1" xmlns="http://www.w3.org/2000/svg" xmlns:xlink="http://www.w3.org/1999/xlink" x="0px" y="0px"
	 viewBox="0 0 21 22" style="enable-background:new 0 0 21 22;" xml:space="preserve">
<style type="text/css">
	.st0{fill:#9B9B9B;}
</style>
<title>下单@2x</title>
<desc>Created with Sketch.</desc>
<g id="下单" transform="translate(1.000000, 1.000000)">
	<g>
		<path id="Shape_9_" class="st0" d="M8.9,18.7H2.5c-0.6,0-1.2-0.4-1.2-1.2V2.5c0-0.6,0.4-1.2,1.2-1.2h12.9c0.3,0,0.6,0.1,0.7,0.3
			s0.3,0.4,0.3,0.7v5.5c0,0.3,0.3,0.6,0.6,0.6s0.6-0.3,0.6-0.6V2.4c0-1.3-1-2.4-2.2-2.4H2.2C1,0,0,1,0,2.4v15.2C0,19,1,20,2.2,20
			h6.6c0.3,0,0.6-0.3,0.6-0.6C9.5,19,9.2,18.7,8.9,18.7z M4.5,11.8c-0.3,0-0.6,0.3-0.6,0.6v0.1c0,0.3,0.3,0.6,0.6,0.6h5.8
			c0.3,0,0.6-0.3,0.6-0.6v-0.1c0-0.3-0.3-0.6-0.6-0.6H4.5z M4.4,8.1c-0.3,0-0.6,0.3-0.6,0.6v0.1c0,0.3,0.3,0.6,0.6,0.6h9.1
			c0.3,0,0.6-0.3,0.6-0.6V8.7c0-0.3-0.3-0.6-0.6-0.6H4.4L4.4,8.1z M13.9,4.6c0-0.3-0.3-0.6-0.6-0.6H4.4C4.1,4,3.8,4.3,3.8,4.6v0.1
			c0,0.3,0.3,0.6,0.6,0.6h9.1c0.3,0,0.6-0.3,0.6-0.6V4.6H13.9z M18.9,14.5c-0.1-0.3-0.4-0.4-0.6-0.4h-1v-2.5c0-0.4-0.3-0.7-0.7-0.7
			h-1.5c-0.4,0-0.7,0.3-0.7,0.7v2.7h-0.9c-0.3,0-0.6,0.1-0.6,0.4c-0.1,0.3-0.1,0.6,0,0.7l2.5,3c0.1,0.3,0.4,0.4,0.6,0.3
			c0.3,0,0.4-0.1,0.6-0.3l2.5-3C19,15.1,19,14.8,18.9,14.5L18.9,14.5z"/>
	</g>
</g>
</svg>
