<?xml version="1.0" encoding="utf-8"?>
<!-- Generator: Adobe Illustrator 21.1.0, SVG Export Plug-In . SVG Version: 6.00 Build 0)  -->
<svg version="1.1" id="图层_1" xmlns="http://www.w3.org/2000/svg" xmlns:xlink="http://www.w3.org/1999/xlink" x="0px" y="0px"
	 viewBox="0 0 20 20" style="enable-background:new 0 0 20 20;" xml:space="preserve">
<style type="text/css">
	.st0{fill:#4A4A4A;}
</style>
<title>payment@2x</title>
<desc>Created with Sketch.</desc>
<g id="待付款-_x28_1_x29_" transform="translate(1.000000, 3.000000)">
	<g>
		<path id="Shape_9_" class="st0" d="M15.9,10.5c-0.3,0-0.5,0.2-0.5,0.4v2.3c0,0.2-0.1,0.5-0.3,0.6s-0.4,0.3-0.6,0.3H1.8
			c-0.2,0-0.5-0.1-0.6-0.3s-0.3-0.4-0.3-0.6V1.8c0-0.5,0.4-0.9,0.9-0.9h12.7c0.2,0,0.5,0.1,0.6,0.3s0.3,0.4,0.3,0.6v2.4
			c0,0.2,0.2,0.4,0.5,0.4c0.3,0,0.5-0.2,0.5-0.4V1.7c0-0.9-0.8-1.7-1.7-1.7H1.7C0.8,0,0,0.8,0,1.7v11.6C0,14.2,0.8,15,1.7,15h12.9
			c1,0,1.7-0.8,1.7-1.7V11C16.4,10.7,16.2,10.5,15.9,10.5z M16.3,5.2H9.6C8.7,5.2,8,5.9,7.9,6.8c0,0,0,0,0,0.1v1.4
			c0,0.9,0.8,1.7,1.7,1.7h6.7c1,0,1.7-0.8,1.7-1.7V6.9C18,6,17.2,5.2,16.3,5.2L16.3,5.2z M17.1,8.1c0,0.5-0.4,0.9-0.9,0.9H9.7
			C9.5,9,9.2,8.9,9.1,8.8C8.9,8.6,8.8,8.4,8.8,8.1V7c0-0.5,0.4-0.9,0.9-0.9h6.5c0.5,0,0.9,0.4,0.9,0.9L17.1,8.1L17.1,8.1L17.1,8.1z
			 M15.7,7c-0.3,0-0.6,0.2-0.6,0.5s0.2,0.5,0.6,0.5c0.2,0,0.4-0.1,0.5-0.3c0.1-0.2,0.1-0.4,0-0.5C16,7.1,15.9,7,15.7,7z"/>
	</g>
</g>
</svg>
