<?xml version="1.0" encoding="utf-8"?>
<!-- Generator: Adobe Illustrator 21.1.0, SVG Export Plug-In . SVG Version: 6.00 Build 0)  -->
<svg version="1.1" id="图层_1" xmlns="http://www.w3.org/2000/svg" xmlns:xlink="http://www.w3.org/1999/xlink" x="0px" y="0px"
	 viewBox="0 0 15 15" style="enable-background:new 0 0 15 15;" xml:space="preserve">
<style type="text/css">
	.st0{fill:#8E8E93;}
</style>
<title>Search Icon@2x</title>
<desc>Created with Sketch.</desc>
<g id="Search-Icon">
	<path class="st0" d="M10.1,9.1c0.1,0,0.2,0.1,0.2,0.2l3.5,3.5c0.3,0.3,0.3,0.8,0,1.1c-0.3,0.3-0.8,0.3-1.1,0l-3.5-3.5
		c-0.1-0.1-0.1-0.1-0.2-0.2c-0.8,0.6-1.9,1-3,1c-2.8,0-5-2.3-5-5.1S3.3,1,6,1s5,2.3,5,5.1C11.1,7.2,10.7,8.2,10.1,9.1z M6,10.1
		c2.2,0,4-1.8,4-4S8.3,2,6,2s-4,1.8-4,4S3.8,10.1,6,10.1z"/>
</g>
</svg>
