<?xml version="1.0" encoding="utf-8"?>
<!-- Generator: Adobe Illustrator 21.1.0, SVG Export Plug-In . SVG Version: 6.00 Build 0)  -->
<svg version="1.1" id="图层_1" xmlns="http://www.w3.org/2000/svg" xmlns:xlink="http://www.w3.org/1999/xlink" x="0px" y="0px"
	 viewBox="0 0 20 20" style="enable-background:new 0 0 20 20;" xml:space="preserve">
<style type="text/css">
	.st0{fill:#4A4A4A;}
</style>
<title>service@2x</title>
<desc>Created with Sketch.</desc>
<g id="退款" transform="translate(2.000000, 2.000000)">
	<g>
		<path id="Shape_19_" class="st0" d="M16,5.5c0-0.1,0-0.2-0.1-0.3C14.7,2.2,11.7,0,8.3,0C3.7,0,0,3.8,0,8.4c0,4.7,3.7,8.4,8.3,8.4
			c2.3,0,4.3-0.9,5.8-2.5l0.1,0.9c0.1,0.3,0.4,0.5,0.7,0.4c0.3-0.1,0.5-0.4,0.4-0.7l-0.3-2c-0.1-0.3-0.3-0.4-0.5-0.4
			c0,0-0.1,0-0.1,0l-2.2,0c-0.3,0-0.6,0.3-0.6,0.6c0,0.3,0.3,0.6,0.6,0.6l0.9,0c-1.3,1.3-3,2-4.9,2c-3.9,0-7.1-3.3-7.1-7.3
			s3.2-7.3,7.1-7.3c2.9,0,5.5,1.8,6.6,4.4c0,0.3,0.3,0.5,0.6,0.5C15.7,6.1,16,5.8,16,5.5z"/>
		<path id="Shape_18_" class="st0" d="M10.7,8.4c0.2,0,0.3-0.1,0.3-0.3V7.5c0-0.2-0.1-0.3-0.3-0.3H8.8l2-2c0.2-0.2,0.2-0.5,0-0.6
			l-0.2-0.2c-0.2-0.2-0.4-0.2-0.6,0l-2,2l-2-2c-0.2-0.2-0.4-0.2-0.6,0L5.2,4.5C5.1,4.7,5.1,5,5.2,5.2l2,2H5.3
			c-0.2,0-0.3,0.1-0.3,0.3v0.6c0,0.2,0.1,0.3,0.3,0.3h2.1v1.2H5.3c-0.2,0-0.3,0.1-0.3,0.3v0.6c0,0.2,0.1,0.3,0.3,0.3h2.1v1.4
			c0,0.3,0.2,0.5,0.4,0.5h0.3c0.2,0,0.4-0.2,0.4-0.5v-1.4h2.1c0.2,0,0.3-0.1,0.3-0.3V9.9c0-0.2-0.1-0.3-0.3-0.3H8.6V8.4L10.7,8.4
			L10.7,8.4z"/>
	</g>
</g>
</svg>
