<?xml version="1.0" encoding="utf-8"?>
<!-- Generator: Adobe Illustrator 21.1.0, SVG Export Plug-In . SVG Version: 6.00 Build 0)  -->
<svg version="1.1" id="图层_1" xmlns="http://www.w3.org/2000/svg" xmlns:xlink="http://www.w3.org/1999/xlink" x="0px" y="0px"
	 viewBox="0 0 19 22" style="enable-background:new 0 0 19 22;" xml:space="preserve">
<title>Shape@2x</title>
<desc>Created with Sketch.</desc>
<g id="Shape">
	<path d="M10.9,8.5c0.3-0.3,0.5-0.7,0.5-1.1c0-0.4-0.2-0.8-0.5-1.1C10.6,6,10.2,5.8,9.8,5.8C9.3,5.8,8.9,6,8.6,6.3
		C8.3,6.5,8.2,7,8.2,7.4c0,0.4,0.2,0.8,0.5,1.1C8.9,8.8,9.3,9,9.8,9C10.2,9,10.6,8.8,10.9,8.5z M9.7,18.1c0.3,0,0.6-0.1,0.8-0.4
		c1.7-2.3,5.6-7.7,5.6-10.4c0-3.5-2.9-6.3-6.4-6.3C6.1,1,3.2,3.8,3.2,7.3c0,2.7,3.9,8.2,5.6,10.4C9,18,9.3,18.1,9.7,18.1z M9.7,2.1
		c2.9,0,5.3,2.3,5.3,5.2c0,1.5-1.8,4.9-4.8,9c-0.1,0.1-0.3,0.2-0.4,0.2c-0.2,0-0.3-0.1-0.4-0.2c-3-4-4.8-7.4-4.8-9
		C4.4,4.5,6.8,2.1,9.7,2.1z M17.6,16.4c-0.3-0.4-0.7-0.7-1.2-0.9c-0.4-0.2-0.8-0.2-1.3-0.3l-0.8,1.3c0.1,0,0.2,0,0.3,0l0.7,0
		c0.9,0.1,1.4,0.6,1.5,0.8c0.1,0.2,0.2,0.3,0.2,0.5c0,0.2-0.4,0.8-1.9,1.2c-1.4,0.4-3.4,0.7-5.5,0.7c-2.2,0-4.2-0.2-5.6-0.7
		c-1.5-0.5-1.9-1-1.9-1.2c0-0.3,0.1-0.5,0.3-0.7c0.3-0.2,0.8-0.4,1.4-0.4c0,0,0.1,0,0.1,0c0.1,0,0.2,0,0.6,0c0.1,0,0.2,0,0.3,0
		l-0.8-1.2c-1,0.1-1.8,0.3-2.3,0.7C1.3,16.4,1,17,1,17.8c0,0.6,0.3,1.2,0.9,1.6C2.3,19.7,3,20,3.8,20.3C5.3,20.7,7.3,21,9.6,21
		c2.3,0,4.3-0.2,5.8-0.7c0.8-0.2,1.4-0.5,1.9-0.9c0.6-0.4,0.9-1,0.9-1.6C18.2,17.3,18,16.8,17.6,16.4z"/>
</g>
</svg>
